<svg xmlns="http://www.w3.org/2000/svg" width="900" height="420" viewBox="0 0 900 420"><defs><radialGradient id="nebt-lifespan"><stop offset="0" stop-color="#c5b4ef" stop-opacity=".50"/><stop offset="52%" stop-color="#c5b4ef" stop-opacity=".14"/><stop offset="100%" stop-color="#c5b4ef" stop-opacity="0"/></radialGradient></defs><ellipse cx="1290" cy="110" rx="258.0" ry="159.96" fill="url(#nebt-lifespan)" opacity="0.5"/><ellipse cx="1120.0" cy="500.0" rx="180.0" ry="111.6" fill="url(#nebt-lifespan)" opacity="0.26"/><circle cx="586.2" cy="165.68" r="0.77" fill="#f0f6fc" opacity="0.18"/><circle cx="416.48" cy="500.68" r="0.85" fill="#f0f6fc" opacity="0.34"/><circle cx="75.22" cy="206.79" r="1.07" fill="#f0f6fc" opacity="0.18"/><circle cx="93.49" cy="115.62" r="1.02" fill="#f0f6fc" opacity="0.18"/><circle cx="109.82" cy="312.79" r="0.74" fill="#f0f6fc" opacity="0.18"/><circle cx="1511.22" cy="250.75" r="1.21" fill="#f0f6fc" opacity="0.57"/><circle cx="226.87" cy="228.65" r="0.63" fill="#f0f6fc" opacity="0.18"/><circle cx="1473.18" cy="83.46" r="0.83" fill="#f0f6fc" opacity="0.85"/><circle cx="1103.5" cy="372.78" r="0.64" fill="#f0f6fc" opacity="0.32"/><circle cx="339.98" cy="89.33" r="1.12" fill="#f0f6fc" opacity="0.18"/><circle cx="64.77" cy="245.7" r="1.38" fill="#f0f6fc" opacity="0.18"/><circle cx="420.59" cy="11.67" r="0.75" fill="#f0f6fc" opacity="0.18"/><circle cx="270.72" cy="366.71" r="0.82" fill="#f0f6fc" opacity="0.18"/><circle cx="1468.3" cy="270.2" r="1.06" fill="#f0f6fc" opacity="0.52"/><circle cx="1444.04" cy="40.83" r="1.29" fill="#f0f6fc" opacity="0.7"/><circle cx="912.32" cy="403.69" r="0.82" fill="#f0f6fc" opacity="0.64"/><circle cx="825.03" cy="36.63" r="0.58" fill="#f0f6fc" opacity="0.18"/><circle cx="455.65" cy="175.49" r="0.84" fill="#f0f6fc" opacity="0.18"/><circle cx="15.41" cy="251.52" r="1.12" fill="#f0f6fc" opacity="0.18"/><circle cx="797.6" cy="212.8" r="1.12" fill="#f0f6fc" opacity="0.18"/><circle cx="1081.27" cy="105.79" r="1.29" fill="#f0f6fc" opacity="0.88"/><circle cx="744.37" cy="399.59" r="1.06" fill="#f0f6fc" opacity="0.18"/><circle cx="1136.15" cy="95.33" r="0.86" fill="#f0f6fc" opacity="0.39"/><circle cx="359.04" cy="23.17" r="0.98" fill="#f0f6fc" opacity="0.18"/><circle cx="1030.23" cy="396.9" r="0.64" fill="#f0f6fc" opacity="0.41"/><circle cx="1116.96" cy="198.96" r="0.88" fill="#f0f6fc" opacity="0.49"/><circle cx="1340.92" cy="133.1" r="1.11" fill="#f0f6fc" opacity="0.34"/><circle cx="1026.02" cy="13.35" r="0.84" fill="#f0f6fc" opacity="0.79"/><circle cx="1537.19" cy="425.8" r="1.04" fill="#f0f6fc" opacity="0.44"/><circle cx="827.89" cy="409.26" r="0.76" fill="#f0f6fc" opacity="0.18"/><circle cx="596.92" cy="183.56" r="1.27" fill="#f0f6fc" opacity="0.18"/><circle cx="1404.66" cy="367.97" r="0.94" fill="#f0f6fc" opacity="0.75"/><circle cx="298.61" cy="52.32" r="0.91" fill="#f0f6fc" opacity="0.18"/><circle cx="1498.39" cy="283.26" r="0.67" fill="#f0f6fc" opacity="0.78"/><circle cx="290.07" cy="208.16" r="0.64" fill="#f0f6fc" opacity="0.18"/><circle cx="279.85" cy="279.22" r="0.81" fill="#f0f6fc" opacity="0.18"/><circle cx="157.21" cy="320.16" r="0.54" fill="#f0f6fc" opacity="0.18"/><circle cx="517.28" cy="138.11" r="0.74" fill="#f0f6fc" opacity="0.18"/><circle cx="492.77" cy="3.17" r="1.2" fill="#f0f6fc" opacity="0.18"/><circle cx="1145.12" cy="278.11" r="0.68" fill="#f0f6fc" opacity="0.87"/><circle cx="1365.09" cy="320.67" r="1.22" fill="#f0f6fc" opacity="0.52"/><circle cx="1386.83" cy="177.53" r="1.13" fill="#f0f6fc" opacity="0.36"/><circle cx="583.73" cy="482.86" r="0.59" fill="#f0f6fc" opacity="0.81"/><circle cx="1152.39" cy="519.87" r="0.87" fill="#f0f6fc" opacity="0.45"/><circle cx="663.39" cy="402.81" r="1.13" fill="#f0f6fc" opacity="0.18"/><circle cx="1083.98" cy="263.38" r="1.04" fill="#f0f6fc" opacity="0.47"/><circle cx="523" cy="463.25" r="0.85" fill="#f0f6fc" opacity="0.77"/><circle cx="1306.99" cy="397.86" r="0.86" fill="#f0f6fc" opacity="0.85"/><circle cx="546.05" cy="316.57" r="1.05" fill="#f0f6fc" opacity="0.18"/><circle cx="1431.26" cy="395.02" r="0.6" fill="#f0f6fc" opacity="0.41"/><circle cx="275.57" cy="185.76" r="1.24" fill="#f0f6fc" opacity="0.18"/><circle cx="55.07" cy="190.38" r="1.26" fill="#f0f6fc" opacity="0.18"/><circle cx="1259.56" cy="184.38" r="0.62" fill="#f0f6fc" opacity="0.44"/><circle cx="1402.51" cy="297.21" r="1.13" fill="#f0f6fc" opacity="0.71"/><circle cx="140.38" cy="489.88" r="0.92" fill="#f0f6fc" opacity="0.68"/><circle cx="1351.38" cy="512.86" r="1.23" fill="#f0f6fc" opacity="0.83"/><circle cx="1123.47" cy="466.46" r="0.61" fill="#f0f6fc" opacity="0.54"/><circle cx="1001.93" cy="126.56" r="0.71" fill="#f0f6fc" opacity="0.54"/><circle cx="246.11" cy="517.84" r="0.57" fill="#f0f6fc" opacity="0.41"/><circle cx="45.66" cy="297.24" r="0.75" fill="#f0f6fc" opacity="0.18"/><circle cx="646.14" cy="510.09" r="1.11" fill="#f0f6fc" opacity="0.62"/><circle cx="333.98" cy="201.34" r="0.67" fill="#f0f6fc" opacity="0.18"/><circle cx="1230.78" cy="364.48" r="1.3" fill="#f0f6fc" opacity="0.33"/><circle cx="447.05" cy="390.62" r="0.59" fill="#f0f6fc" opacity="0.18"/><circle cx="345.29" cy="20.22" r="0.82" fill="#f0f6fc" opacity="0.18"/><circle cx="462.46" cy="479.97" r="1.32" fill="#f0f6fc" opacity="0.78"/><circle cx="41.8" cy="447.33" r="1.02" fill="#f0f6fc" opacity="0.34"/><circle cx="924.05" cy="125.24" r="0.68" fill="#f0f6fc" opacity="0.82"/><circle cx="810.58" cy="491.02" r="1.27" fill="#f0f6fc" opacity="0.85"/><circle cx="135.97" cy="316.58" r="0.81" fill="#f0f6fc" opacity="0.18"/><circle cx="1190.79" cy="428.01" r="1.08" fill="#f0f6fc" opacity="0.58"/><circle cx="1360.89" cy="383.24" r="0.88" fill="#f0f6fc" opacity="0.77"/><circle cx="879.45" cy="265.05" r="1.31" fill="#f0f6fc" opacity="0.18"/><circle cx="1475.78" cy="172.98" r="1.26" fill="#f0f6fc" opacity="0.56"/><circle cx="819.48" cy="213.85" r="1.5" fill="#f0f6fc" opacity="0.18"/><circle cx="55.34" cy="295.5" r="0.57" fill="#f0f6fc" opacity="0.18"/><circle cx="1347.77" cy="138.24" r="1.08" fill="#f0f6fc" opacity="0.41"/><circle cx="1184.41" cy="466.39" r="0.68" fill="#f0f6fc" opacity="0.82"/><circle cx="389.29" cy="462.52" r="0.63" fill="#f0f6fc" opacity="0.32"/><circle cx="1395.26" cy="286.86" r="1.22" fill="#f0f6fc" opacity="0.41"/><circle cx="925.84" cy="384.29" r="1" fill="#f0f6fc" opacity="0.72"/><circle cx="1436.42" cy="221.59" r="0.98" fill="#f0f6fc" opacity="0.64"/><circle cx="1464.83" cy="497.25" r="0.88" fill="#f0f6fc" opacity="0.58"/><circle cx="1041.33" cy="266.51" r="0.55" fill="#f0f6fc" opacity="0.5"/><circle cx="1507.96" cy="304.01" r="0.61" fill="#f0f6fc" opacity="0.68"/><circle cx="697.19" cy="226.63" r="1.44" fill="#f0f6fc" opacity="0.18"/><circle cx="1220.07" cy="138.92" r="0.53" fill="#f0f6fc" opacity="0.43"/><circle cx="97.79" cy="220.86" r="0.52" fill="#f0f6fc" opacity="0.18"/><circle cx="1491.49" cy="454.68" r="0.72" fill="#f0f6fc" opacity="0.38"/><circle cx="1038.36" cy="196.07" r="1.1" fill="#f0f6fc" opacity="0.83"/><circle cx="1291.59" cy="338.29" r="0.54" fill="#f0f6fc" opacity="0.43"/><circle cx="608.35" cy="290.95" r="0.75" fill="#f0f6fc" opacity="0.18"/><circle cx="1403.45" cy="554.08" r="1.28" fill="#f0f6fc" opacity="0.66"/><circle cx="712.42" cy="154.89" r="0.71" fill="#f0f6fc" opacity="0.18"/><circle cx="814.04" cy="549.6" r="1.18" fill="#f0f6fc" opacity="0.81"/><circle cx="62.07" cy="433.05" r="1.12" fill="#f0f6fc" opacity="0.8"/><circle cx="76.56" cy="338.35" r="0.69" fill="#f0f6fc" opacity="0.18"/><circle cx="644.37" cy="349.23" r="1.5" fill="#f0f6fc" opacity="0.18"/><circle cx="879.16" cy="287.58" r="1.2" fill="#f0f6fc" opacity="0.18"/><circle cx="390.73" cy="258.6" r="0.66" fill="#f0f6fc" opacity="0.18"/><circle cx="1413.71" cy="276.12" r="1.07" fill="#f0f6fc" opacity="0.59"/><circle cx="845.66" cy="210.59" r="0.95" fill="#f0f6fc" opacity="0.18"/><circle cx="344.53" cy="462.2" r="1.13" fill="#f0f6fc" opacity="0.42"/><circle cx="1035.5" cy="121.67" r="0.91" fill="#f0f6fc" opacity="0.59"/><circle cx="1537.16" cy="438.15" r="1.28" fill="#f0f6fc" opacity="0.62"/><circle cx="827.09" cy="293.61" r="0.55" fill="#f0f6fc" opacity="0.18"/><circle cx="1388.54" cy="302.61" r="1.05" fill="#f0f6fc" opacity="0.43"/><circle cx="549.07" cy="128.72" r="0.84" fill="#f0f6fc" opacity="0.18"/><circle cx="903.16" cy="42.1" r="0.52" fill="#f0f6fc" opacity="0.88"/><circle cx="184.86" cy="190.02" r="0.83" fill="#f0f6fc" opacity="0.18"/><circle cx="928.85" cy="54.41" r="0.85" fill="#f0f6fc" opacity="0.42"/><circle cx="321.02" cy="66.77" r="1.46" fill="#f0f6fc" opacity="0.18"/><circle cx="1508.43" cy="378.13" r="0.94" fill="#f0f6fc" opacity="0.35"/><circle cx="118.65" cy="266.74" r="0.75" fill="#f0f6fc" opacity="0.18"/><circle cx="1338.47" cy="265.91" r="0.78" fill="#f0f6fc" opacity="0.42"/><circle cx="501.96" cy="414.43" r="0.84" fill="#f0f6fc" opacity="0.18"/><circle cx="137.97" cy="72.29" r="0.89" fill="#f0f6fc" opacity="0.18"/><circle cx="1226.95" cy="543.89" r="0.66" fill="#f0f6fc" opacity="0.66"/><circle cx="17.16" cy="271.53" r="1.18" fill="#f0f6fc" opacity="0.18"/><circle cx="150.25" cy="81.5" r="0.92" fill="#f0f6fc" opacity="0.18"/><circle cx="1046.22" cy="405.36" r="1.07" fill="#f0f6fc" opacity="0.86"/><circle cx="1097.79" cy="118.83" r="0.51" fill="#f0f6fc" opacity="0.86"/><circle cx="624.06" cy="200.87" r="1.16" fill="#f0f6fc" opacity="0.18"/><circle cx="1533.61" cy="15.42" r="1.26" fill="#f0f6fc" opacity="0.54"/><circle cx="1447.01" cy="58.26" r="1.11" fill="#f0f6fc" opacity="0.39"/><circle cx="28.58" cy="91.59" r="1.05" fill="#f0f6fc" opacity="0.18"/><circle cx="877.65" cy="348.69" r="0.99" fill="#f0f6fc" opacity="0.18"/><circle cx="113.52" cy="82.06" r="0.99" fill="#f0f6fc" opacity="0.18"/><circle cx="26.11" cy="134.84" r="1.22" fill="#f0f6fc" opacity="0.18"/><circle cx="1423.33" cy="241.85" r="1.23" fill="#f0f6fc" opacity="0.51"/><circle cx="606.53" cy="103.92" r="1.48" fill="#f0f6fc" opacity="0.18"/><circle cx="295.87" cy="84.5" r="1.23" fill="#f0f6fc" opacity="0.18"/><circle cx="312.01" cy="227.53" r="1.42" fill="#f0f6fc" opacity="0.18"/><circle cx="333.36" cy="77.46" r="1.08" fill="#f0f6fc" opacity="0.18"/><g opacity="0.44" stroke="#f0f6fc" stroke-width=".7"><line x1="1313.19" y1="91.5" x2="1328.3" y2="91.5"/><line x1="1320.75" y1="83.95" x2="1320.75" y2="99.06"/></g><circle cx="1320.75" cy="91.5" r="1.45" fill="#ffffff" opacity="0.79"/><g opacity="0.26" stroke="#f0f6fc" stroke-width=".7"><line x1="1277.98" y1="311.68" x2="1292.17" y2="311.68"/><line x1="1285.07" y1="304.58" x2="1285.07" y2="318.77"/></g><circle cx="1285.07" cy="311.68" r="1.36" fill="#ffffff" opacity="0.47"/><g opacity="0.36" stroke="#f0f6fc" stroke-width=".7"><line x1="342.04" y1="523.87" x2="356.9" y2="523.87"/><line x1="349.47" y1="516.44" x2="349.47" y2="531.3"/></g><circle cx="349.47" cy="523.87" r="1.43" fill="#ffffff" opacity="0.66"/><g opacity="0.3" stroke="#f0f6fc" stroke-width=".7"><line x1="902.55" y1="529.52" x2="917.07" y2="529.52"/><line x1="909.81" y1="522.25" x2="909.81" y2="536.78"/></g><circle cx="909.81" cy="529.52" r="1.4" fill="#ffffff" opacity="0.55"/><g opacity="0.46" stroke="#f0f6fc" stroke-width=".7"><line x1="25.42" y1="421.15" x2="40.1" y2="421.15"/><line x1="32.76" y1="413.81" x2="32.76" y2="428.5"/></g><circle cx="32.76" cy="421.15" r="1.41" fill="#ffffff" opacity="0.84"/><g opacity="0.51" stroke="#f0f6fc" stroke-width=".7"><line x1="546.45" y1="430.77" x2="560.21" y2="430.77"/><line x1="553.33" y1="423.89" x2="553.33" y2="437.65"/></g><circle cx="553.33" cy="430.77" r="1.32" fill="#ffffff" opacity="0.93"/><g opacity="0.5" stroke="#f0f6fc" stroke-width=".7"><line x1="1509.44" y1="268.54" x2="1524.04" y2="268.54"/><line x1="1516.74" y1="261.24" x2="1516.74" y2="275.84"/></g><circle cx="1516.74" cy="268.54" r="1.4" fill="#ffffff" opacity="0.92"/><g opacity="0.27" stroke="#f0f6fc" stroke-width=".7"><line x1="1336.03" y1="371.89" x2="1350.21" y2="371.89"/><line x1="1343.12" y1="364.8" x2="1343.12" y2="378.98"/></g><circle cx="1343.12" cy="371.89" r="1.36" fill="#ffffff" opacity="0.48"/><g opacity="0.41" stroke="#f0f6fc" stroke-width=".7"><line x1="1340.42" y1="109.44" x2="1355.61" y2="109.44"/><line x1="1348.02" y1="101.84" x2="1348.02" y2="117.04"/></g><circle cx="1348.02" cy="109.44" r="1.46" fill="#ffffff" opacity="0.75"/><g opacity="0.41" stroke="#f0f6fc" stroke-width=".7"><line x1="896.94" y1="48.51" x2="912.14" y2="48.51"/><line x1="904.54" y1="40.91" x2="904.54" y2="56.1"/></g><circle cx="904.54" cy="48.51" r="1.46" fill="#ffffff" opacity="0.75"/><g opacity="0.34" stroke="#f0f6fc" stroke-width=".7"><line x1="805.89" y1="483.82" x2="821.37" y2="483.82"/><line x1="813.63" y1="476.08" x2="813.63" y2="491.56"/></g><circle cx="813.63" cy="483.82" r="1.49" fill="#ffffff" opacity="0.62"/><g opacity="0.52" stroke="#f0f6fc" stroke-width=".7"><line x1="1369.7" y1="301.22" x2="1384.62" y2="301.22"/><line x1="1377.16" y1="293.76" x2="1377.16" y2="308.68"/></g><circle cx="1377.16" cy="301.22" r="1.43" fill="#ffffff" opacity="0.95"/><g opacity="0.39" stroke="#f0f6fc" stroke-width=".7"><line x1="1139.79" y1="489.01" x2="1154.01" y2="489.01"/><line x1="1146.9" y1="481.9" x2="1146.9" y2="496.12"/></g><circle cx="1146.9" cy="489.01" r="1.37" fill="#ffffff" opacity="0.7"/><g opacity="0.44" stroke="#f0f6fc" stroke-width=".7"><line x1="1121.93" y1="331.28" x2="1136.37" y2="331.28"/><line x1="1129.15" y1="324.06" x2="1129.15" y2="338.5"/></g><circle cx="1129.15" cy="331.28" r="1.39" fill="#ffffff" opacity="0.8"/><g opacity="0.28" stroke="#f0f6fc" stroke-width=".7"><line x1="1148.25" y1="544.88" x2="1163.43" y2="544.88"/><line x1="1155.84" y1="537.29" x2="1155.84" y2="552.47"/></g><circle cx="1155.84" cy="544.88" r="1.46" fill="#ffffff" opacity="0.52"/><g opacity="0.35" stroke="#f0f6fc" stroke-width=".7"><line x1="1171.08" y1="468" x2="1185.56" y2="468"/><line x1="1178.32" y1="460.76" x2="1178.32" y2="475.24"/></g><circle cx="1178.32" cy="468" r="1.39" fill="#ffffff" opacity="0.63"/></svg>