<svg xmlns="http://www.w3.org/2000/svg" width="900" height="420" viewBox="0 0 900 420"><defs><radialGradient id="nebt-current"><stop offset="0" stop-color="#9ac2e6" stop-opacity=".50"/><stop offset="52%" stop-color="#9ac2e6" stop-opacity=".14"/><stop offset="100%" stop-color="#9ac2e6" stop-opacity="0"/></radialGradient></defs><ellipse cx="1290" cy="110" rx="258.0" ry="159.96" fill="url(#nebt-current)" opacity="0.5"/><ellipse cx="1120.0" cy="500.0" rx="180.0" ry="111.6" fill="url(#nebt-current)" opacity="0.26"/><circle cx="347.15" cy="440.29" r="1.06" fill="#f0f6fc" opacity="0.31"/><circle cx="1354.83" cy="342.37" r="0.61" fill="#f0f6fc" opacity="0.36"/><circle cx="685.39" cy="203.78" r="1.08" fill="#f0f6fc" opacity="0.18"/><circle cx="1026.84" cy="119.19" r="1.15" fill="#f0f6fc" opacity="0.71"/><circle cx="22.23" cy="483.73" r="1.2" fill="#f0f6fc" opacity="0.77"/><circle cx="653.88" cy="304.43" r="1.04" fill="#f0f6fc" opacity="0.18"/><circle cx="1424.39" cy="362.46" r="0.69" fill="#f0f6fc" opacity="0.53"/><circle cx="684.63" cy="78.66" r="0.6" fill="#f0f6fc" opacity="0.18"/><circle cx="658.44" cy="174.81" r="0.95" fill="#f0f6fc" opacity="0.18"/><circle cx="714.44" cy="543.26" r="1.31" fill="#f0f6fc" opacity="0.67"/><circle cx="634.48" cy="377.23" r="1.34" fill="#f0f6fc" opacity="0.18"/><circle cx="229.11" cy="54.52" r="0.68" fill="#f0f6fc" opacity="0.18"/><circle cx="49.9" cy="66.87" r="0.96" fill="#f0f6fc" opacity="0.18"/><circle cx="748.59" cy="407.7" r="0.88" fill="#f0f6fc" opacity="0.18"/><circle cx="1033.17" cy="190.59" r="1.27" fill="#f0f6fc" opacity="0.66"/><circle cx="1370.78" cy="351.04" r="1.32" fill="#f0f6fc" opacity="0.57"/><circle cx="587.56" cy="244.05" r="0.57" fill="#f0f6fc" opacity="0.18"/><circle cx="515.26" cy="509.9" r="1.09" fill="#f0f6fc" opacity="0.88"/><circle cx="667.02" cy="120.75" r="1.26" fill="#f0f6fc" opacity="0.18"/><circle cx="1059.26" cy="531.26" r="0.64" fill="#f0f6fc" opacity="0.44"/><circle cx="120.26" cy="135.28" r="1.06" fill="#f0f6fc" opacity="0.18"/><circle cx="950.88" cy="451.91" r="0.97" fill="#f0f6fc" opacity="0.79"/><circle cx="522.08" cy="374.45" r="0.95" fill="#f0f6fc" opacity="0.18"/><circle cx="1416.27" cy="252.55" r="0.55" fill="#f0f6fc" opacity="0.87"/><circle cx="1189.33" cy="83.77" r="0.79" fill="#f0f6fc" opacity="0.41"/><circle cx="140.54" cy="139.36" r="0.68" fill="#f0f6fc" opacity="0.18"/><circle cx="1402.86" cy="363.68" r="0.82" fill="#f0f6fc" opacity="0.59"/><circle cx="455.25" cy="541.99" r="0.76" fill="#f0f6fc" opacity="0.67"/><circle cx="1159.99" cy="128.51" r="1.16" fill="#f0f6fc" opacity="0.48"/><circle cx="510.18" cy="263.97" r="0.98" fill="#f0f6fc" opacity="0.18"/><circle cx="26.46" cy="393.96" r="0.54" fill="#f0f6fc" opacity="0.18"/><circle cx="350.56" cy="87.98" r="0.94" fill="#f0f6fc" opacity="0.18"/><circle cx="585.72" cy="511.9" r="0.96" fill="#f0f6fc" opacity="0.37"/><circle cx="733.97" cy="286.09" r="1.2" fill="#f0f6fc" opacity="0.18"/><circle cx="1580.38" cy="341.91" r="0.61" fill="#f0f6fc" opacity="0.64"/><circle cx="374.03" cy="188.9" r="1.35" fill="#f0f6fc" opacity="0.18"/><circle cx="656" cy="205.35" r="0.83" fill="#f0f6fc" opacity="0.18"/><circle cx="984.15" cy="204.54" r="1.05" fill="#f0f6fc" opacity="0.8"/><circle cx="104.81" cy="489.38" r="1.11" fill="#f0f6fc" opacity="0.41"/><circle cx="921.31" cy="127.74" r="0.88" fill="#f0f6fc" opacity="0.46"/><circle cx="1209.46" cy="341.08" r="0.85" fill="#f0f6fc" opacity="0.84"/><circle cx="1429.8" cy="458.91" r="1.06" fill="#f0f6fc" opacity="0.65"/><circle cx="1586.8" cy="491.47" r="1.1" fill="#f0f6fc" opacity="0.35"/><circle cx="1484.94" cy="13.21" r="1.14" fill="#f0f6fc" opacity="0.74"/><circle cx="331.6" cy="129.59" r="1.06" fill="#f0f6fc" opacity="0.18"/><circle cx="1360.3" cy="146.57" r="0.55" fill="#f0f6fc" opacity="0.44"/><circle cx="554.79" cy="429.67" r="1.3" fill="#f0f6fc" opacity="0.65"/><circle cx="768.25" cy="477.75" r="0.86" fill="#f0f6fc" opacity="0.64"/><circle cx="1506.12" cy="166.36" r="1.17" fill="#f0f6fc" opacity="0.76"/><circle cx="1315.73" cy="407.98" r="1.27" fill="#f0f6fc" opacity="0.83"/><circle cx="658.27" cy="38.37" r="1.15" fill="#f0f6fc" opacity="0.18"/><circle cx="1383.61" cy="175.33" r="0.52" fill="#f0f6fc" opacity="0.44"/><circle cx="1252.31" cy="433.67" r="0.91" fill="#f0f6fc" opacity="0.8"/><circle cx="268.18" cy="381.05" r="0.74" fill="#f0f6fc" opacity="0.18"/><circle cx="439.56" cy="495.06" r="0.87" fill="#f0f6fc" opacity="0.86"/><circle cx="572.3" cy="453.09" r="0.93" fill="#f0f6fc" opacity="0.45"/><circle cx="544.11" cy="418.78" r="0.59" fill="#f0f6fc" opacity="0.18"/><circle cx="1257.5" cy="121.32" r="0.65" fill="#f0f6fc" opacity="0.8"/><circle cx="1489.56" cy="510.44" r="0.51" fill="#f0f6fc" opacity="0.31"/><circle cx="388.66" cy="199.78" r="1.21" fill="#f0f6fc" opacity="0.18"/><circle cx="768.03" cy="470.98" r="0.71" fill="#f0f6fc" opacity="0.7"/><circle cx="1146.11" cy="411.1" r="0.8" fill="#f0f6fc" opacity="0.51"/><circle cx="483.96" cy="435.77" r="1.12" fill="#f0f6fc" opacity="0.63"/><circle cx="369.34" cy="250.65" r="0.7" fill="#f0f6fc" opacity="0.18"/><circle cx="1397.84" cy="543.68" r="0.67" fill="#f0f6fc" opacity="0.88"/><circle cx="900.77" cy="60.57" r="1.31" fill="#f0f6fc" opacity="0.45"/><circle cx="1569.97" cy="156.12" r="1.27" fill="#f0f6fc" opacity="0.32"/><circle cx="1329.5" cy="73.8" r="1.08" fill="#f0f6fc" opacity="0.75"/><circle cx="1204.2" cy="86.1" r="0.7" fill="#f0f6fc" opacity="0.5"/><circle cx="31.22" cy="190.56" r="1.03" fill="#f0f6fc" opacity="0.18"/><circle cx="1254.64" cy="493.24" r="0.8" fill="#f0f6fc" opacity="0.75"/><circle cx="709.56" cy="150.73" r="1.1" fill="#f0f6fc" opacity="0.18"/><circle cx="790.07" cy="376.05" r="1.39" fill="#f0f6fc" opacity="0.18"/><circle cx="183.42" cy="145.6" r="1.11" fill="#f0f6fc" opacity="0.18"/><circle cx="1513.56" cy="275.86" r="0.53" fill="#f0f6fc" opacity="0.63"/><circle cx="531.56" cy="153.21" r="1.49" fill="#f0f6fc" opacity="0.18"/><circle cx="2.97" cy="329.68" r="0.99" fill="#f0f6fc" opacity="0.18"/><circle cx="1041.92" cy="396.83" r="0.67" fill="#f0f6fc" opacity="0.82"/><circle cx="642.24" cy="310.52" r="0.98" fill="#f0f6fc" opacity="0.18"/><circle cx="955.36" cy="178.95" r="1.21" fill="#f0f6fc" opacity="0.42"/><circle cx="1465.1" cy="526.43" r="1.17" fill="#f0f6fc" opacity="0.52"/><circle cx="409.41" cy="285.44" r="0.68" fill="#f0f6fc" opacity="0.18"/><circle cx="598.84" cy="129.56" r="0.56" fill="#f0f6fc" opacity="0.18"/><circle cx="908.05" cy="115.26" r="1.23" fill="#f0f6fc" opacity="0.75"/><circle cx="835.44" cy="485.94" r="0.61" fill="#f0f6fc" opacity="0.46"/><circle cx="38.39" cy="371.1" r="0.94" fill="#f0f6fc" opacity="0.18"/><circle cx="1059.65" cy="544.85" r="1.05" fill="#f0f6fc" opacity="0.62"/><circle cx="1060.3" cy="295.94" r="0.66" fill="#f0f6fc" opacity="0.53"/><circle cx="512.79" cy="189.03" r="0.89" fill="#f0f6fc" opacity="0.18"/><circle cx="883.02" cy="193.05" r="0.9" fill="#f0f6fc" opacity="0.18"/><circle cx="247.17" cy="49.01" r="0.96" fill="#f0f6fc" opacity="0.18"/><circle cx="795.74" cy="126.91" r="1.05" fill="#f0f6fc" opacity="0.18"/><circle cx="1470.81" cy="263.04" r="1.14" fill="#f0f6fc" opacity="0.64"/><circle cx="1193.92" cy="20.56" r="1.25" fill="#f0f6fc" opacity="0.51"/><circle cx="190.89" cy="265.79" r="0.59" fill="#f0f6fc" opacity="0.18"/><circle cx="163.52" cy="512.76" r="0.96" fill="#f0f6fc" opacity="0.56"/><circle cx="58.12" cy="208.58" r="1.3" fill="#f0f6fc" opacity="0.18"/><circle cx="1010.55" cy="38.38" r="0.78" fill="#f0f6fc" opacity="0.75"/><circle cx="517.25" cy="466.9" r="0.72" fill="#f0f6fc" opacity="0.57"/><circle cx="679.65" cy="230.71" r="0.67" fill="#f0f6fc" opacity="0.18"/><circle cx="759.61" cy="43.24" r="0.52" fill="#f0f6fc" opacity="0.18"/><circle cx="372.36" cy="227.63" r="1.05" fill="#f0f6fc" opacity="0.18"/><circle cx="1338.43" cy="323.3" r="1.03" fill="#f0f6fc" opacity="0.71"/><circle cx="902.68" cy="362.93" r="1.29" fill="#f0f6fc" opacity="0.47"/><circle cx="705.43" cy="115.76" r="0.58" fill="#f0f6fc" opacity="0.18"/><circle cx="869.2" cy="313.74" r="1.41" fill="#f0f6fc" opacity="0.18"/><circle cx="63.71" cy="207.77" r="1.29" fill="#f0f6fc" opacity="0.18"/><circle cx="1003.92" cy="247.69" r="1.23" fill="#f0f6fc" opacity="0.86"/><circle cx="303.69" cy="62.96" r="0.93" fill="#f0f6fc" opacity="0.18"/><circle cx="921.04" cy="356.22" r="0.75" fill="#f0f6fc" opacity="0.34"/><circle cx="1167.28" cy="558.49" r="0.6" fill="#f0f6fc" opacity="0.64"/><circle cx="713.09" cy="355.18" r="1.31" fill="#f0f6fc" opacity="0.18"/><circle cx="341.44" cy="95.35" r="0.6" fill="#f0f6fc" opacity="0.18"/><circle cx="197.39" cy="416.73" r="1.38" fill="#f0f6fc" opacity="0.18"/><circle cx="484.8" cy="19.11" r="0.71" fill="#f0f6fc" opacity="0.18"/><circle cx="1359.84" cy="318.38" r="0.94" fill="#f0f6fc" opacity="0.51"/><circle cx="998.61" cy="482.07" r="0.7" fill="#f0f6fc" opacity="0.55"/><circle cx="234.6" cy="66.92" r="1.38" fill="#f0f6fc" opacity="0.18"/><circle cx="767.96" cy="423.23" r="1.24" fill="#f0f6fc" opacity="0.56"/><circle cx="1310.46" cy="461.59" r="0.91" fill="#f0f6fc" opacity="0.32"/><circle cx="1021.92" cy="209.81" r="1" fill="#f0f6fc" opacity="0.85"/><circle cx="381.86" cy="222.51" r="1.49" fill="#f0f6fc" opacity="0.18"/><circle cx="858.1" cy="451.42" r="1.16" fill="#f0f6fc" opacity="0.54"/><circle cx="922.11" cy="309.1" r="1.29" fill="#f0f6fc" opacity="0.72"/><circle cx="38.65" cy="499.73" r="0.93" fill="#f0f6fc" opacity="0.59"/><circle cx="16.88" cy="185.78" r="1" fill="#f0f6fc" opacity="0.18"/><circle cx="508.01" cy="256.69" r="0.59" fill="#f0f6fc" opacity="0.18"/><circle cx="463.88" cy="495.73" r="0.51" fill="#f0f6fc" opacity="0.85"/><circle cx="1251.42" cy="383.63" r="1.27" fill="#f0f6fc" opacity="0.68"/><circle cx="1452.16" cy="469.17" r="1.21" fill="#f0f6fc" opacity="0.62"/><circle cx="949.61" cy="134.86" r="0.97" fill="#f0f6fc" opacity="0.34"/><g opacity="0.35" stroke="#f0f6fc" stroke-width=".7"><line x1="985.05" y1="190.16" x2="999.18" y2="190.16"/><line x1="992.12" y1="183.1" x2="992.12" y2="197.22"/></g><circle cx="992.12" cy="190.16" r="1.36" fill="#ffffff" opacity="0.63"/><g opacity="0.51" stroke="#f0f6fc" stroke-width=".7"><line x1="1027.78" y1="220.79" x2="1041.98" y2="220.79"/><line x1="1034.88" y1="213.69" x2="1034.88" y2="227.89"/></g><circle cx="1034.88" cy="220.79" r="1.36" fill="#ffffff" opacity="0.92"/><g opacity="0.31" stroke="#f0f6fc" stroke-width=".7"><line x1="1242.01" y1="144.21" x2="1257.44" y2="144.21"/><line x1="1249.72" y1="136.49" x2="1249.72" y2="151.92"/></g><circle cx="1249.72" cy="144.21" r="1.48" fill="#ffffff" opacity="0.57"/><g opacity="0.4" stroke="#f0f6fc" stroke-width=".7"><line x1="979.64" y1="271.25" x2="994.49" y2="271.25"/><line x1="987.07" y1="263.82" x2="987.07" y2="278.67"/></g><circle cx="987.07" cy="271.25" r="1.43" fill="#ffffff" opacity="0.73"/><g opacity="0.32" stroke="#f0f6fc" stroke-width=".7"><line x1="429.5" y1="459.59" x2="444.27" y2="459.59"/><line x1="436.88" y1="452.21" x2="436.88" y2="466.98"/></g><circle cx="436.88" cy="459.59" r="1.42" fill="#ffffff" opacity="0.58"/><g opacity="0.38" stroke="#f0f6fc" stroke-width=".7"><line x1="447.2" y1="429.86" x2="461.44" y2="429.86"/><line x1="454.32" y1="422.74" x2="454.32" y2="436.98"/></g><circle cx="454.32" cy="429.86" r="1.37" fill="#ffffff" opacity="0.7"/><g opacity="0.42" stroke="#f0f6fc" stroke-width=".7"><line x1="1044.96" y1="145.79" x2="1058.9" y2="145.79"/><line x1="1051.93" y1="138.81" x2="1051.93" y2="152.76"/></g><circle cx="1051.93" cy="145.79" r="1.34" fill="#ffffff" opacity="0.76"/><g opacity="0.25" stroke="#f0f6fc" stroke-width=".7"><line x1="1528.02" y1="228.19" x2="1542.15" y2="228.19"/><line x1="1535.08" y1="221.13" x2="1535.08" y2="235.26"/></g><circle cx="1535.08" cy="228.19" r="1.36" fill="#ffffff" opacity="0.45"/><g opacity="0.41" stroke="#f0f6fc" stroke-width=".7"><line x1="884.7" y1="557.33" x2="898.67" y2="557.33"/><line x1="891.68" y1="550.35" x2="891.68" y2="564.31"/></g><circle cx="891.68" cy="557.33" r="1.34" fill="#ffffff" opacity="0.75"/><g opacity="0.25" stroke="#f0f6fc" stroke-width=".7"><line x1="1174.28" y1="559.54" x2="1189.83" y2="559.54"/><line x1="1182.05" y1="551.76" x2="1182.05" y2="567.31"/></g><circle cx="1182.05" cy="559.54" r="1.5" fill="#ffffff" opacity="0.45"/><g opacity="0.5" stroke="#f0f6fc" stroke-width=".7"><line x1="1409.4" y1="416.08" x2="1423.49" y2="416.08"/><line x1="1416.45" y1="409.03" x2="1416.45" y2="423.12"/></g><circle cx="1416.45" cy="416.08" r="1.36" fill="#ffffff" opacity="0.91"/><g opacity="0.27" stroke="#f0f6fc" stroke-width=".7"><line x1="973.54" y1="92.12" x2="988.38" y2="92.12"/><line x1="980.96" y1="84.7" x2="980.96" y2="99.54"/></g><circle cx="980.96" cy="92.12" r="1.43" fill="#ffffff" opacity="0.5"/><g opacity="0.52" stroke="#f0f6fc" stroke-width=".7"><line x1="1449.58" y1="161.24" x2="1464.09" y2="161.24"/><line x1="1456.83" y1="153.98" x2="1456.83" y2="168.49"/></g><circle cx="1456.83" cy="161.24" r="1.4" fill="#ffffff" opacity="0.95"/><g opacity="0.34" stroke="#f0f6fc" stroke-width=".7"><line x1="1014.59" y1="229.66" x2="1029.64" y2="229.66"/><line x1="1022.11" y1="222.14" x2="1022.11" y2="237.19"/></g><circle cx="1022.11" cy="229.66" r="1.45" fill="#ffffff" opacity="0.62"/><g opacity="0.27" stroke="#f0f6fc" stroke-width=".7"><line x1="1180.64" y1="275.03" x2="1194.54" y2="275.03"/><line x1="1187.59" y1="268.08" x2="1187.59" y2="281.97"/></g><circle cx="1187.59" cy="275.03" r="1.34" fill="#ffffff" opacity="0.48"/><g opacity="0.34" stroke="#f0f6fc" stroke-width=".7"><line x1="1181.3" y1="52.43" x2="1195.36" y2="52.43"/><line x1="1188.33" y1="45.4" x2="1188.33" y2="59.46"/></g><circle cx="1188.33" cy="52.43" r="1.35" fill="#ffffff" opacity="0.61"/><g opacity="0.41" stroke="#f0f6fc" stroke-width=".7"><line x1="1163.76" y1="233.99" x2="1179.13" y2="233.99"/><line x1="1171.44" y1="226.31" x2="1171.44" y2="241.68"/></g><circle cx="1171.44" cy="233.99" r="1.48" fill="#ffffff" opacity="0.75"/><g opacity="0.47" stroke="#f0f6fc" stroke-width=".7"><line x1="1154.26" y1="258.31" x2="1168.53" y2="258.31"/><line x1="1161.4" y1="251.17" x2="1161.4" y2="265.44"/></g><circle cx="1161.4" cy="258.31" r="1.37" fill="#ffffff" opacity="0.85"/><g opacity="0.44" stroke="#f0f6fc" stroke-width=".7"><line x1="1040.51" y1="450.46" x2="1055.05" y2="450.46"/><line x1="1047.78" y1="443.19" x2="1047.78" y2="457.74"/></g><circle cx="1047.78" cy="450.46" r="1.4" fill="#ffffff" opacity="0.81"/></svg>