<svg xmlns="http://www.w3.org/2000/svg" width="900" height="420" viewBox="0 0 900 420"><defs><radialGradient id="nebt-ai-robots"><stop offset="0" stop-color="#39d3ba" stop-opacity=".50"/><stop offset="52%" stop-color="#39d3ba" stop-opacity=".14"/><stop offset="100%" stop-color="#39d3ba" stop-opacity="0"/></radialGradient></defs><ellipse cx="1290" cy="110" rx="258.0" ry="159.96" fill="url(#nebt-ai-robots)" opacity="0.5"/><ellipse cx="1120.0" cy="500.0" rx="180.0" ry="111.6" fill="url(#nebt-ai-robots)" opacity="0.26"/><circle cx="1432.95" cy="130.82" r="0.71" fill="#f0f6fc" opacity="0.53"/><circle cx="921.66" cy="34.23" r="0.62" fill="#f0f6fc" opacity="0.54"/><circle cx="528.14" cy="264.47" r="0.9" fill="#f0f6fc" opacity="0.18"/><circle cx="329.39" cy="20.08" r="1.01" fill="#f0f6fc" opacity="0.18"/><circle cx="288.11" cy="471.7" r="0.99" fill="#f0f6fc" opacity="0.8"/><circle cx="332.73" cy="367.61" r="0.88" fill="#f0f6fc" opacity="0.18"/><circle cx="1026.74" cy="4.85" r="0.95" fill="#f0f6fc" opacity="0.56"/><circle cx="571.5" cy="130.22" r="0.77" fill="#f0f6fc" opacity="0.18"/><circle cx="1315.44" cy="260.46" r="0.57" fill="#f0f6fc" opacity="0.75"/><circle cx="1260.11" cy="313.28" r="1.02" fill="#f0f6fc" opacity="0.59"/><circle cx="113.06" cy="1.57" r="0.64" fill="#f0f6fc" opacity="0.18"/><circle cx="637.74" cy="243.49" r="0.54" fill="#f0f6fc" opacity="0.18"/><circle cx="1250.1" cy="480.78" r="0.83" fill="#f0f6fc" opacity="0.58"/><circle cx="612.18" cy="77.89" r="1.18" fill="#f0f6fc" opacity="0.18"/><circle cx="572.51" cy="494.34" r="1.03" fill="#f0f6fc" opacity="0.55"/><circle cx="1003.46" cy="162.95" r="0.96" fill="#f0f6fc" opacity="0.66"/><circle cx="85.4" cy="46.21" r="0.5" fill="#f0f6fc" opacity="0.18"/><circle cx="1587.72" cy="43.61" r="1.2" fill="#f0f6fc" opacity="0.77"/><circle cx="1096.82" cy="302.1" r="0.95" fill="#f0f6fc" opacity="0.3"/><circle cx="740.87" cy="482.39" r="0.54" fill="#f0f6fc" opacity="0.78"/><circle cx="361.51" cy="393.57" r="1.46" fill="#f0f6fc" opacity="0.18"/><circle cx="282.39" cy="88.41" r="0.78" fill="#f0f6fc" opacity="0.18"/><circle cx="424.62" cy="32.06" r="1.3" fill="#f0f6fc" opacity="0.18"/><circle cx="519.06" cy="556.44" r="0.64" fill="#f0f6fc" opacity="0.87"/><circle cx="565.5" cy="92.97" r="0.59" fill="#f0f6fc" opacity="0.18"/><circle cx="341.41" cy="49.72" r="0.91" fill="#f0f6fc" opacity="0.18"/><circle cx="804" cy="390.47" r="1.24" fill="#f0f6fc" opacity="0.18"/><circle cx="1331.31" cy="97.81" r="0.67" fill="#f0f6fc" opacity="0.59"/><circle cx="896.11" cy="345.98" r="0.96" fill="#f0f6fc" opacity="0.18"/><circle cx="679.57" cy="128.87" r="1.46" fill="#f0f6fc" opacity="0.18"/><circle cx="58.54" cy="290.65" r="0.89" fill="#f0f6fc" opacity="0.18"/><circle cx="439.74" cy="34.75" r="1.22" fill="#f0f6fc" opacity="0.18"/><circle cx="890.84" cy="243.59" r="1.12" fill="#f0f6fc" opacity="0.18"/><circle cx="718.33" cy="221.57" r="1.31" fill="#f0f6fc" opacity="0.18"/><circle cx="942.38" cy="513.92" r="0.56" fill="#f0f6fc" opacity="0.6"/><circle cx="618.49" cy="93.76" r="1.43" fill="#f0f6fc" opacity="0.18"/><circle cx="756.07" cy="9.92" r="0.71" fill="#f0f6fc" opacity="0.18"/><circle cx="583.82" cy="108.16" r="1.43" fill="#f0f6fc" opacity="0.18"/><circle cx="512.12" cy="358.02" r="0.5" fill="#f0f6fc" opacity="0.18"/><circle cx="1342.11" cy="118.06" r="1" fill="#f0f6fc" opacity="0.82"/><circle cx="1271.81" cy="151.86" r="0.85" fill="#f0f6fc" opacity="0.73"/><circle cx="1049.05" cy="167.27" r="1.21" fill="#f0f6fc" opacity="0.47"/><circle cx="1221.23" cy="51.43" r="1.16" fill="#f0f6fc" opacity="0.7"/><circle cx="232.04" cy="374.17" r="0.98" fill="#f0f6fc" opacity="0.18"/><circle cx="1314.99" cy="252.05" r="0.74" fill="#f0f6fc" opacity="0.41"/><circle cx="1120.04" cy="403.47" r="1" fill="#f0f6fc" opacity="0.57"/><circle cx="856.58" cy="81.89" r="0.74" fill="#f0f6fc" opacity="0.18"/><circle cx="859.38" cy="298.92" r="0.6" fill="#f0f6fc" opacity="0.18"/><circle cx="905.06" cy="408.95" r="0.84" fill="#f0f6fc" opacity="0.36"/><circle cx="55.79" cy="214.2" r="1.42" fill="#f0f6fc" opacity="0.18"/><circle cx="1330.93" cy="424.3" r="0.74" fill="#f0f6fc" opacity="0.59"/><circle cx="775.62" cy="336.69" r="1.48" fill="#f0f6fc" opacity="0.18"/><circle cx="76.22" cy="70.18" r="0.63" fill="#f0f6fc" opacity="0.18"/><circle cx="1072.55" cy="404.46" r="0.62" fill="#f0f6fc" opacity="0.74"/><circle cx="517.14" cy="277.76" r="1.49" fill="#f0f6fc" opacity="0.18"/><circle cx="1031.26" cy="115.33" r="1.17" fill="#f0f6fc" opacity="0.53"/><circle cx="607.85" cy="401.24" r="0.69" fill="#f0f6fc" opacity="0.18"/><circle cx="611.29" cy="305.9" r="1.44" fill="#f0f6fc" opacity="0.18"/><circle cx="490.7" cy="420.64" r="1.07" fill="#f0f6fc" opacity="0.39"/><circle cx="307.32" cy="82.17" r="0.8" fill="#f0f6fc" opacity="0.18"/><circle cx="1109.86" cy="110.93" r="1.3" fill="#f0f6fc" opacity="0.39"/><circle cx="1007.78" cy="549.66" r="0.52" fill="#f0f6fc" opacity="0.65"/><circle cx="1515.21" cy="484.16" r="1.06" fill="#f0f6fc" opacity="0.32"/><circle cx="1202.97" cy="522.74" r="1.02" fill="#f0f6fc" opacity="0.47"/><circle cx="370.7" cy="277.23" r="0.74" fill="#f0f6fc" opacity="0.18"/><circle cx="1473.68" cy="35.15" r="0.68" fill="#f0f6fc" opacity="0.42"/><circle cx="322.22" cy="165.32" r="0.72" fill="#f0f6fc" opacity="0.18"/><circle cx="562.47" cy="234.1" r="1.31" fill="#f0f6fc" opacity="0.18"/><circle cx="388.94" cy="380.96" r="0.51" fill="#f0f6fc" opacity="0.18"/><circle cx="1389.68" cy="518.68" r="1.01" fill="#f0f6fc" opacity="0.46"/><circle cx="96.07" cy="273.41" r="0.7" fill="#f0f6fc" opacity="0.18"/><circle cx="1179.54" cy="433.04" r="0.92" fill="#f0f6fc" opacity="0.65"/><circle cx="1045.1" cy="76.27" r="1.01" fill="#f0f6fc" opacity="0.8"/><circle cx="171.76" cy="75.01" r="1.28" fill="#f0f6fc" opacity="0.18"/><circle cx="949.86" cy="422.56" r="1.28" fill="#f0f6fc" opacity="0.82"/><circle cx="1365.21" cy="400.09" r="0.54" fill="#f0f6fc" opacity="0.73"/><circle cx="480.2" cy="233.82" r="1.46" fill="#f0f6fc" opacity="0.18"/><circle cx="461.69" cy="375.58" r="0.52" fill="#f0f6fc" opacity="0.18"/><circle cx="305.81" cy="419.1" r="0.72" fill="#f0f6fc" opacity="0.18"/><circle cx="1209.67" cy="504.58" r="1.25" fill="#f0f6fc" opacity="0.72"/><circle cx="1139.9" cy="504.08" r="1.26" fill="#f0f6fc" opacity="0.88"/><circle cx="148.07" cy="400.11" r="0.84" fill="#f0f6fc" opacity="0.18"/><circle cx="383.01" cy="510.11" r="1.07" fill="#f0f6fc" opacity="0.85"/><circle cx="1549.98" cy="489.12" r="1.15" fill="#f0f6fc" opacity="0.32"/><circle cx="1366.73" cy="243.29" r="0.56" fill="#f0f6fc" opacity="0.77"/><circle cx="166.42" cy="6.6" r="1.32" fill="#f0f6fc" opacity="0.18"/><circle cx="1597.43" cy="473.49" r="1.05" fill="#f0f6fc" opacity="0.57"/><circle cx="570.07" cy="239.61" r="1.23" fill="#f0f6fc" opacity="0.18"/><circle cx="0.08" cy="403.47" r="1.13" fill="#f0f6fc" opacity="0.18"/><circle cx="1099.09" cy="141.34" r="0.83" fill="#f0f6fc" opacity="0.41"/><circle cx="761.92" cy="387.9" r="0.93" fill="#f0f6fc" opacity="0.18"/><circle cx="0.76" cy="555.21" r="1.26" fill="#f0f6fc" opacity="0.42"/><circle cx="976.24" cy="382.44" r="1.21" fill="#f0f6fc" opacity="0.47"/><circle cx="1375.34" cy="248.89" r="0.97" fill="#f0f6fc" opacity="0.8"/><circle cx="486.18" cy="282.79" r="1.39" fill="#f0f6fc" opacity="0.18"/><circle cx="119.73" cy="558.38" r="0.63" fill="#f0f6fc" opacity="0.8"/><circle cx="271.29" cy="162.08" r="0.91" fill="#f0f6fc" opacity="0.18"/><circle cx="1151.54" cy="144.85" r="1.24" fill="#f0f6fc" opacity="0.36"/><circle cx="386.49" cy="396.83" r="0.5" fill="#f0f6fc" opacity="0.18"/><circle cx="909.94" cy="312.05" r="1.27" fill="#f0f6fc" opacity="0.86"/><circle cx="1437.27" cy="25.67" r="1.13" fill="#f0f6fc" opacity="0.75"/><circle cx="461.16" cy="258.21" r="0.99" fill="#f0f6fc" opacity="0.18"/><circle cx="1467.91" cy="456.47" r="0.76" fill="#f0f6fc" opacity="0.43"/><circle cx="586.3" cy="537.05" r="0.65" fill="#f0f6fc" opacity="0.54"/><circle cx="625.2" cy="364.55" r="1.26" fill="#f0f6fc" opacity="0.18"/><circle cx="1141.71" cy="18.23" r="1.21" fill="#f0f6fc" opacity="0.33"/><circle cx="865.94" cy="213.35" r="1.41" fill="#f0f6fc" opacity="0.18"/><circle cx="572.74" cy="170.65" r="0.71" fill="#f0f6fc" opacity="0.18"/><circle cx="1550.23" cy="546.83" r="0.6" fill="#f0f6fc" opacity="0.83"/><circle cx="415.2" cy="278.1" r="1.16" fill="#f0f6fc" opacity="0.18"/><circle cx="1025.46" cy="549.64" r="0.98" fill="#f0f6fc" opacity="0.79"/><circle cx="1039.02" cy="263.31" r="1.29" fill="#f0f6fc" opacity="0.68"/><circle cx="1070.11" cy="136.14" r="1.02" fill="#f0f6fc" opacity="0.74"/><circle cx="392.12" cy="362.06" r="1.02" fill="#f0f6fc" opacity="0.18"/><circle cx="1537.44" cy="9.49" r="1.06" fill="#f0f6fc" opacity="0.32"/><circle cx="544.07" cy="447.17" r="0.98" fill="#f0f6fc" opacity="0.69"/><circle cx="1199.26" cy="250.73" r="0.64" fill="#f0f6fc" opacity="0.77"/><circle cx="1229.87" cy="122.63" r="0.78" fill="#f0f6fc" opacity="0.32"/><circle cx="1589.7" cy="237.81" r="0.77" fill="#f0f6fc" opacity="0.8"/><circle cx="1193.7" cy="147.64" r="1.17" fill="#f0f6fc" opacity="0.43"/><circle cx="1048.95" cy="454.67" r="1.04" fill="#f0f6fc" opacity="0.76"/><circle cx="932.67" cy="150.65" r="1.14" fill="#f0f6fc" opacity="0.53"/><circle cx="1366.98" cy="30.3" r="0.65" fill="#f0f6fc" opacity="0.61"/><circle cx="440.59" cy="473.44" r="0.84" fill="#f0f6fc" opacity="0.82"/><circle cx="1427.34" cy="87.8" r="1.2" fill="#f0f6fc" opacity="0.53"/><circle cx="250.87" cy="23.44" r="0.54" fill="#f0f6fc" opacity="0.18"/><circle cx="484.31" cy="506.54" r="0.52" fill="#f0f6fc" opacity="0.48"/><circle cx="1439.46" cy="155.72" r="1.3" fill="#f0f6fc" opacity="0.7"/><circle cx="984.84" cy="483.64" r="1.22" fill="#f0f6fc" opacity="0.85"/><circle cx="71.29" cy="312.22" r="1.11" fill="#f0f6fc" opacity="0.18"/><circle cx="1487.21" cy="179.85" r="0.64" fill="#f0f6fc" opacity="0.53"/><circle cx="777.08" cy="271.66" r="0.73" fill="#f0f6fc" opacity="0.18"/><circle cx="449.19" cy="181.45" r="1.44" fill="#f0f6fc" opacity="0.18"/><circle cx="694.84" cy="29.02" r="0.79" fill="#f0f6fc" opacity="0.18"/><circle cx="1120.11" cy="273.17" r="1.16" fill="#f0f6fc" opacity="0.87"/><circle cx="1595.14" cy="78.77" r="0.86" fill="#f0f6fc" opacity="0.78"/><g opacity="0.37" stroke="#f0f6fc" stroke-width=".7"><line x1="61.61" y1="463.51" x2="75.7" y2="463.51"/><line x1="68.66" y1="456.47" x2="68.66" y2="470.56"/></g><circle cx="68.66" cy="463.51" r="1.36" fill="#ffffff" opacity="0.67"/><g opacity="0.47" stroke="#f0f6fc" stroke-width=".7"><line x1="1481.66" y1="356.02" x2="1495.78" y2="356.02"/><line x1="1488.72" y1="348.96" x2="1488.72" y2="363.09"/></g><circle cx="1488.72" cy="356.02" r="1.36" fill="#ffffff" opacity="0.85"/><g opacity="0.26" stroke="#f0f6fc" stroke-width=".7"><line x1="126.76" y1="465.8" x2="141" y2="465.8"/><line x1="133.88" y1="458.68" x2="133.88" y2="472.92"/></g><circle cx="133.88" cy="465.8" r="1.37" fill="#ffffff" opacity="0.47"/><g opacity="0.34" stroke="#f0f6fc" stroke-width=".7"><line x1="1017.02" y1="341.91" x2="1031.29" y2="341.91"/><line x1="1024.15" y1="334.77" x2="1024.15" y2="349.04"/></g><circle cx="1024.15" cy="341.91" r="1.37" fill="#ffffff" opacity="0.62"/><g opacity="0.31" stroke="#f0f6fc" stroke-width=".7"><line x1="1221.39" y1="211.28" x2="1236.39" y2="211.28"/><line x1="1228.89" y1="203.78" x2="1228.89" y2="218.78"/></g><circle cx="1228.89" cy="211.28" r="1.44" fill="#ffffff" opacity="0.57"/><g opacity="0.36" stroke="#f0f6fc" stroke-width=".7"><line x1="155.73" y1="433.23" x2="170.16" y2="433.23"/><line x1="162.95" y1="426.01" x2="162.95" y2="440.45"/></g><circle cx="162.95" cy="433.23" r="1.39" fill="#ffffff" opacity="0.66"/><g opacity="0.27" stroke="#f0f6fc" stroke-width=".7"><line x1="321.14" y1="473.77" x2="335.6" y2="473.77"/><line x1="328.37" y1="466.54" x2="328.37" y2="481"/></g><circle cx="328.37" cy="473.77" r="1.39" fill="#ffffff" opacity="0.49"/><g opacity="0.32" stroke="#f0f6fc" stroke-width=".7"><line x1="969.5" y1="348.38" x2="984.11" y2="348.38"/><line x1="976.8" y1="341.07" x2="976.8" y2="355.68"/></g><circle cx="976.8" cy="348.38" r="1.41" fill="#ffffff" opacity="0.58"/><g opacity="0.42" stroke="#f0f6fc" stroke-width=".7"><line x1="1460.4" y1="193.64" x2="1474.85" y2="193.64"/><line x1="1467.63" y1="186.42" x2="1467.63" y2="200.86"/></g><circle cx="1467.63" cy="193.64" r="1.39" fill="#ffffff" opacity="0.76"/><g opacity="0.36" stroke="#f0f6fc" stroke-width=".7"><line x1="1569.78" y1="66.78" x2="1585.24" y2="66.78"/><line x1="1577.51" y1="59.05" x2="1577.51" y2="74.51"/></g><circle cx="1577.51" cy="66.78" r="1.49" fill="#ffffff" opacity="0.65"/><g opacity="0.37" stroke="#f0f6fc" stroke-width=".7"><line x1="1544.51" y1="305.19" x2="1558.83" y2="305.19"/><line x1="1551.67" y1="298.03" x2="1551.67" y2="312.35"/></g><circle cx="1551.67" cy="305.19" r="1.38" fill="#ffffff" opacity="0.67"/><g opacity="0.3" stroke="#f0f6fc" stroke-width=".7"><line x1="1412.26" y1="104.47" x2="1427.38" y2="104.47"/><line x1="1419.82" y1="96.91" x2="1419.82" y2="112.03"/></g><circle cx="1419.82" cy="104.47" r="1.45" fill="#ffffff" opacity="0.55"/><g opacity="0.36" stroke="#f0f6fc" stroke-width=".7"><line x1="1461.6" y1="87.35" x2="1477.14" y2="87.35"/><line x1="1469.37" y1="79.58" x2="1469.37" y2="95.13"/></g><circle cx="1469.37" cy="87.35" r="1.49" fill="#ffffff" opacity="0.66"/><g opacity="0.26" stroke="#f0f6fc" stroke-width=".7"><line x1="1103.49" y1="393.19" x2="1118.87" y2="393.19"/><line x1="1111.18" y1="385.5" x2="1111.18" y2="400.88"/></g><circle cx="1111.18" cy="393.19" r="1.48" fill="#ffffff" opacity="0.47"/></svg>