<svg xmlns="http://www.w3.org/2000/svg" viewBox="0 0 680 478" width="680" height="478" font-family='-apple-system,BlinkMacSystemFont,"Segoe UI","PingFang SC","Hiragino Sans GB","Microsoft YaHei",sans-serif'>
  <rect width="680" height="478" fill="#ffffff"/>
  <text x="30" y="30" font-size="17" font-weight="650" fill="#1c1c1a">03　星舰建造与技术</text>
  <text x="30" y="47" font-size="11.5" fill="#6f6f69">完全复用 + 在轨低温推进剂加注：把地火之间的运力问题变成轨道上的流体问题</text>
  <line x1="30" y1="50" x2="650" y2="50" stroke="#e6e5e0" stroke-width="1"/>
  <g transform="translate(0,52)">
<defs><marker id="ar" viewBox="0 0 8 8" refX="4" refY="4" markerWidth="5" markerHeight="5" orient="auto-start-reverse"><path d="M1 1 L7 4 L1 7" fill="none" stroke="#6f6f69" stroke-width="1.1" stroke-linecap="round" stroke-linejoin="round"/></marker></defs><ellipse cx="230.41" cy="237.45" rx="47.36" ry="27.34" fill="rgba(196,200,207,.34)" stroke="#1c1c1a" stroke-width="0.7"/><path d="M 183.05 65.21 L 183.05 237.45 A 47.36 27.34 0 0 0 277.77 237.45 L 277.77 65.21 A 47.36 27.34 0 0 1 183.05 65.21 Z" fill="rgba(196,200,207,.34)" stroke="#1c1c1a" stroke-width="0.7"/><ellipse cx="230.41" cy="65.21" rx="47.36" ry="27.34" fill="rgba(242,243,245,.45)" stroke="#1c1c1a" stroke-width="0.7"/><ellipse cx="230.41" cy="230.42" rx="30.14" ry="17.4" fill="#83b2e1" stroke="#1c1c1a" stroke-width="0.7"/><path d="M 200.27 153.09 L 200.27 230.42 A 30.14 17.4 0 0 0 260.54 230.42 L 260.54 153.09 A 30.14 17.4 0 0 1 200.27 153.09 Z" fill="#83b2e1" stroke="#1c1c1a" stroke-width="0.7"/><ellipse cx="230.41" cy="153.09" rx="30.14" ry="17.4" fill="#cfe2f7" stroke="#1c1c1a" stroke-width="0.7"/><polygon points="340,269.09 361.31,281.39 340,293.7 318.69,281.39" fill="#faeeda" stroke="#1c1c1a" stroke-width="0.7" stroke-linejoin="round"/><polygon points="318.69,281.39 340,293.7 340,318.3 318.69,306" fill="#f3d7a9" stroke="#1c1c1a" stroke-width="0.7" stroke-linejoin="round"/><polygon points="361.31,281.39 340,293.7 340,318.3 361.31,306" fill="#e9be7b" stroke="#1c1c1a" stroke-width="0.7" stroke-linejoin="round"/><ellipse cx="230.41" cy="65.21" rx="17.22" ry="9.94" fill="#c3c7ce" stroke="#1c1c1a" stroke-width="0.7"/><path d="M 213.19 26.55 L 213.19 65.21 A 17.22 9.94 0 0 0 247.63 65.21 L 247.63 26.55 A 17.22 9.94 0 0 1 213.19 26.55 Z" fill="#c3c7ce" stroke="#1c1c1a" stroke-width="0.7"/><ellipse cx="230.41" cy="26.55" rx="17.22" ry="9.94" fill="#f2f3f5" stroke="#1c1c1a" stroke-width="0.7"/><ellipse cx="449.59" cy="364" rx="47.36" ry="27.34" fill="rgba(196,200,207,.34)" stroke="#1c1c1a" stroke-width="0.7"/><path d="M 402.23 191.76 L 402.23 364 A 47.36 27.34 0 0 0 496.95 364 L 496.95 191.76 A 47.36 27.34 0 0 1 402.23 191.76 Z" fill="rgba(196,200,207,.34)" stroke="#1c1c1a" stroke-width="0.7"/><ellipse cx="449.59" cy="191.76" rx="47.36" ry="27.34" fill="rgba(242,243,245,.45)" stroke="#1c1c1a" stroke-width="0.7"/><ellipse cx="449.59" cy="356.97" rx="30.14" ry="17.4" fill="#a3c8ea" stroke="#1c1c1a" stroke-width="0.7"/><path d="M 419.46 226.91 L 419.46 356.97 A 30.14 17.4 0 0 0 479.73 356.97 L 479.73 226.91 A 30.14 17.4 0 0 1 419.46 226.91 Z" fill="#a3c8ea" stroke="#1c1c1a" stroke-width="0.7"/><ellipse cx="449.59" cy="226.91" rx="30.14" ry="17.4" fill="#e6f1fb" stroke="#1c1c1a" stroke-width="0.7"/><ellipse cx="449.59" cy="191.76" rx="17.22" ry="9.94" fill="#c3c7ce" stroke="#1c1c1a" stroke-width="0.7"/><path d="M 432.37 153.09 L 432.37 191.76 A 17.22 9.94 0 0 0 466.81 191.76 L 466.81 153.09 A 17.22 9.94 0 0 1 432.37 153.09 Z" fill="#c3c7ce" stroke="#1c1c1a" stroke-width="0.7"/><ellipse cx="449.59" cy="153.09" rx="17.22" ry="9.94" fill="#f2f3f5" stroke="#1c1c1a" stroke-width="0.7"/><line x1="230.41" y1="26.55" x2="449.59" y2="153.09" stroke="#6f6f69" stroke-width="1.6" stroke-dasharray="5 3"/><line x1="230.41" y1="114.42" x2="340" y2="269.09" stroke="#6f6f69" stroke-width="1.2" stroke-dasharray="4 3"/><line x1="449.59" y1="216.36" x2="340" y2="269.09" stroke="#6f6f69" stroke-width="1.2" stroke-dasharray="4 3"/><line x1="533.96" y1="364" x2="533.96" y2="191.76" stroke="#6f6f69" stroke-width="0.8" marker-start="url(#ar)" marker-end="url(#ar)"/><text x="541.96" y="277.88" fill="#6f6f69" font-size="10.5" text-anchor="middle" dominant-baseline="middle">加注约数百吨</text><polyline points="340,269.09 294.13,255.03 238.06,255.03" fill="none" stroke="#6f6f69" stroke-width="0.7" stroke-linejoin="round"/><text x="233.06" y="251.03" fill="#6f6f69" font-size="10.5" text-anchor="end">低温泵组 · 两相流控制</text><polyline points="230.41,26.55 194.03,16 149.56,16" fill="none" stroke="#6f6f69" stroke-width="0.7" stroke-linejoin="round"/><text x="144.56" y="12" fill="#6f6f69" font-size="10.5" text-anchor="end">对接机构</text><polyline points="230.41,202.3 182.95,212.85 124.95,212.85" fill="none" stroke="#6f6f69" stroke-width="0.7" stroke-linejoin="round"/><text x="119.95" y="208.85" fill="#6f6f69" font-size="10.5" text-anchor="end">受油船 · 液位 ≈ 50%</text><polyline points="449.59,153.09 485.97,142.55 530.44,142.55" fill="none" stroke="#6f6f69" stroke-width="0.7" stroke-linejoin="round"/><text x="535.44" y="138.55" fill="#6f6f69" font-size="10.5" text-anchor="start">传输管路</text><polyline points="449.59,311.27 497.05,325.33 555.05,325.33" fill="none" stroke="#6f6f69" stroke-width="0.7" stroke-linejoin="round"/><text x="560.05" y="321.33" fill="#6f6f69" font-size="10.5" text-anchor="start">加油船 · 液位 ≈ 80%</text>
  </g>
  <line x1="30" y1="442" x2="650" y2="442" stroke="#e6e5e0" stroke-width="1"/>
  <text x="30" y="462" font-size="11.5" fill="#9a9992">图 03　半透明外壳露出内部贮箱与液位。加注的物理难点是微重力沉底与低温两相流控制。</text>
</svg>
